<svg width="24" height="24" viewBox="0 0 24 24" fill="none" xmlns="http://www.w3.org/2000/svg">
<path d="M9 17V16C8.44772 16 8 16.4477 8 17H9ZM15 17H16C16 16.4477 15.5523 16 15 16V17ZM9 18H15V16H9V18ZM14 17V18H16V17H14ZM10 18V17H8V18H10ZM12 20C10.8954 20 10 19.1046 10 18H8C8 20.2091 9.79086 22 12 22V20ZM14 18C14 19.1046 13.1046 20 12 20V22C14.2091 22 16 20.2091 16 18H14Z" fill="white"/>
<path d="M4.29289 14.7071L3.58579 14L3.58579 14L4.29289 14.7071ZM4.80372 14.1963L5.51082 14.9034L5.51082 14.9034L4.80372 14.1963ZM19.1963 14.1963L19.9034 13.4892L19.9034 13.4892L19.1963 14.1963ZM19.7071 14.7071L20.4142 14L20.4142 14L19.7071 14.7071ZM12 3L12 4L12 3ZM19 16H5V18H19V16ZM5 16V15.4142H3V16H5ZM5 15.4142L5.51082 14.9034L4.09661 13.4892L3.58579 14L5 15.4142ZM6 13.7224V10H4V13.7224H6ZM18 10V13.7224H20V10H18ZM18.4892 14.9034L19 15.4142L20.4142 14L19.9034 13.4892L18.4892 14.9034ZM19 15.4142V16H21V15.4142H19ZM19 15.4142L19 15.4142H21C21 14.8838 20.7893 14.3751 20.4142 14L19 15.4142ZM18 13.7224C18 14.1653 18.176 14.5901 18.4892 14.9034L19.9034 13.4892C19.9653 13.551 20 13.6349 20 13.7224H18ZM20 10C20 5.58171 16.4183 1.99999 12 2L12 4C15.3137 3.99999 18 6.68629 18 10H20ZM6 10C6 6.6863 8.68628 4.00001 12 4L12 2C7.58171 2.00001 4 5.58173 4 10H6ZM5.51082 14.9034C5.82404 14.5902 6 14.1654 6 13.7224H4C4 13.635 4.03475 13.5511 4.09661 13.4892L5.51082 14.9034ZM5 15.4142L5 15.4142L3.58579 14C3.21071 14.3751 3 14.8838 3 15.4142H5ZM5 16H3C3 17.1046 3.89543 18 5 18V16ZM19 18C20.1046 18 21 17.1046 21 16H19V18Z" fill="white"/>
<path d="M9.29292 11.2929C8.9024 11.6834 8.9024 12.3165 9.29292 12.7071C9.68345 13.0976 10.3166 13.0976 10.7071 12.7071L9.29292 11.2929ZM14.7071 8.70711C15.0976 8.31658 15.0976 7.68342 14.7071 7.29289C14.3166 6.90237 13.6834 6.90237 13.2929 7.29289L14.7071 8.70711ZM10.7071 12.7071L14.7071 8.70711L13.2929 7.29289L9.29292 11.2929L10.7071 12.7071Z" fill="white"/>
<path d="M10.7071 7.29289C10.3166 6.90237 9.68345 6.90237 9.29292 7.29289C8.9024 7.68342 8.9024 8.31658 9.29292 8.70711L10.7071 7.29289ZM13.2929 12.7071C13.6834 13.0976 14.3166 13.0976 14.7071 12.7071C15.0976 12.3165 15.0976 11.6834 14.7071 11.2929L13.2929 12.7071ZM9.29292 8.70711L13.2929 12.7071L14.7071 11.2929L10.7071 7.29289L9.29292 8.70711Z" fill="white"/>
</svg>
