<svg width="20" height="20" viewBox="0 0 20 20" fill="none" xmlns="http://www.w3.org/2000/svg">
<path d="M12 7H2C1.44772 7 1 7.44772 1 8V18C1 18.5523 1.44772 19 2 19H12C12.5523 19 13 18.5523 13 18V8C13 7.44772 12.5523 7 12 7Z" stroke="white" stroke-width="2" stroke-linecap="round" stroke-linejoin="round"/>
<path d="M18 1H8C7.44772 1 7 1.44772 7 2V12C7 12.5523 7.44772 13 8 13H18C18.5523 13 19 12.5523 19 12V2C19 1.44772 18.5523 1 18 1Z" stroke="white" stroke-width="2" stroke-linecap="round" stroke-linejoin="round"/>
</svg>
